<?xml version="1.0" standalone="no"?>
<!DOCTYPE svg PUBLIC "-//W3C//DTD SVG 20010904//EN"
 "http://www.w3.org/TR/2001/REC-SVG-20010904/DTD/svg10.dtd">
<svg version="1.0" xmlns="http://www.w3.org/2000/svg"
 width="900.000000pt" height="900.000000pt" viewBox="0 0 900.000000 900.000000"
 preserveAspectRatio="xMidYMid meet">

<g transform="translate(0.000000,900.000000) scale(0.200000,-0.200000)"
fill="white" stroke="none">
<path d="M3885 7644 c-358 -43 -716 -150 -1050 -315 -164 -81 -270 -158 -426
-306 -244 -234 -453 -523 -635 -878 -211 -409 -331 -830 -364 -1270 -14 -200
-12 -206 19 -55 35 168 59 252 128 455 54 157 81 221 68 162 -16 -77 -46 -274
-55 -366 -11 -113 -12 -478 -1 -581 l7 -65 8 50 c4 28 16 113 27 190 43 297
162 681 293 950 187 381 433 664 866 993 52 40 126 99 164 131 39 33 109 83
157 113 l88 53 1 58 c0 43 -3 57 -12 52 -7 -4 -4 1 7 10 37 31 206 127 308
175 56 27 97 49 90 49 -17 1 -207 -66 -313 -111 -287 -122 -534 -276 -785
-488 -114 -97 -318 -308 -404 -420 -158 -203 -318 -472 -402 -673 -17 -42 -33
-76 -35 -74 -6 6 63 258 97 352 36 103 62 156 166 345 143 257 258 404 437
562 84 73 95 87 95 116 1 39 29 92 48 92 7 0 13 4 13 9 0 35 712 416 960 514
212 83 448 143 683 171 l112 14 -120 0 c-66 0 -174 -7 -240 -14z m-795 -678
c0 -2 -8 -10 -17 -17 -16 -13 -17 -12 -4 4 13 16 21 21 21 13z m-40 -30 c0 -2
-8 -10 -17 -17 -16 -13 -17 -12 -4 4 13 16 21 21 21 13z m-100 -80 c0 -2 -8
-10 -17 -17 -16 -13 -17 -12 -4 4 13 16 21 21 21 13z m-80 -69 c0 -2 -15 -16
-32 -33 l-33 -29 29 33 c28 30 36 37 36 29z m-140 -141 c0 -2 -8 -10 -17 -17
-16 -13 -17 -12 -4 4 13 16 21 21 21 13z"/>
<path d="M4825 7644 c511 -81 881 -216 1270 -464 50 -31 131 -79 180 -105 183
-97 426 -270 557 -396 l68 -66 0 -91 c0 -90 0 -92 41 -149 86 -122 268 -448
256 -459 -2 -2 -21 22 -42 53 -161 245 -491 569 -793 780 -131 92 -352 224
-363 217 -5 -3 -9 -1 -9 4 0 11 -60 35 -68 27 -3 -2 1 -12 8 -20 7 -9 -31 5
-86 30 -379 176 -771 265 -1170 265 -89 0 -189 -3 -223 -6 -58 -7 -61 -8 -61
-34 l0 -28 248 -5 c362 -7 590 -47 938 -162 323 -107 474 -183 715 -357 339
-245 480 -413 788 -937 153 -260 205 -369 271 -571 86 -260 123 -501 123 -795
0 -317 -24 -456 -128 -730 -153 -403 -396 -751 -756 -1085 -276 -255 -530
-418 -854 -548 -55 -22 -154 -66 -219 -97 -303 -144 -604 -237 -931 -290
l-140 -23 110 -1 c291 -2 642 46 903 125 239 72 580 271 862 503 105 86 338
311 358 347 9 15 11 4 12 -55 l0 -74 21 19 c44 39 191 209 262 302 96 127 104
136 71 77 -39 -71 -173 -268 -237 -347 -169 -212 -352 -394 -522 -521 -44 -33
-79 -64 -77 -69 1 -5 -3 -6 -9 -2 -7 4 -18 -1 -26 -11 -7 -11 -13 -16 -13 -12
0 5 -6 3 -12 -3 -25 -22 -266 -154 -378 -208 -63 -30 -180 -82 -260 -114 -111
-45 -134 -58 -100 -53 94 12 347 74 488 119 22 7 22 6 22 -78 0 -47 3 -86 6
-86 9 0 199 107 287 162 187 117 335 236 525 422 282 276 432 495 639 931 191
402 257 578 303 812 40 199 47 764 10 833 -5 10 -10 90 -10 177 0 249 -24 427
-90 690 -143 562 -472 1109 -905 1506 -196 179 -416 336 -630 448 -147 78
-404 137 -770 179 -152 18 -550 38 -460 24z m1205 -729 c0 -3 -18 4 -40 15
-22 11 -40 23 -40 25 0 3 18 -4 40 -15 22 -11 40 -23 40 -25z m65 -29 c11 -9
31 -26 45 -37 14 -11 -3 -3 -37 17 -35 20 -63 37 -63 38 0 10 40 -3 55 -18z
m715 -4559 c0 -2 -10 -12 -22 -23 l-23 -19 19 23 c18 21 26 27 26 19z m-460
-342 c0 -2 -10 -9 -22 -15 -22 -11 -22 -10 -4 4 21 17 26 19 26 11z m-70 -40
c0 -2 -10 -9 -22 -15 -22 -11 -22 -10 -4 4 21 17 26 19 26 11z m-290 -295 c-8
-5 -19 -10 -25 -10 -5 0 -3 5 5 10 8 5 20 10 25 10 6 0 3 -5 -5 -10z"/>
<path d="M4369 7620 c-150 -22 -355 -69 -459 -104 -66 -23 -70 -25 -30 -20
416 50 660 44 1010 -25 80 -16 172 -32 205 -36 112 -12 294 -45 411 -75 65
-16 119 -28 121 -27 7 7 -260 119 -385 161 -235 80 -546 147 -676 145 -39 -1
-128 -9 -197 -19z"/>
<path d="M1384 4495 c-13 -142 -11 -511 4 -635 42 -343 143 -682 291 -979 163
-324 345 -562 642 -841 238 -223 389 -340 601 -466 100 -59 241 -134 253 -134
3 0 5 24 5 53 l0 52 -110 63 c-108 62 -292 188 -298 204 -2 4 -8 6 -13 2 -5
-3 -9 -1 -9 4 0 5 -35 38 -77 73 -260 214 -543 540 -716 824 -114 187 -209
407 -271 620 -34 122 -80 325 -73 331 2 2 23 -45 46 -104 99 -245 329 -680
353 -666 7 4 8 3 4 -4 -8 -13 23 -74 34 -67 4 2 7 -2 7 -9 0 -16 44 -76 55
-76 5 0 7 -4 3 -9 -3 -6 4 -15 15 -21 11 -6 18 -15 15 -20 -3 -5 4 -14 15 -20
11 -6 18 -15 15 -19 -3 -5 2 -11 10 -15 8 -3 15 -10 15 -15 0 -5 9 -20 19 -33
11 -12 53 -64 94 -113 187 -229 415 -400 776 -580 258 -129 469 -186 876 -240
312 -40 304 -40 190 -1 -178 60 -592 229 -720 293 -118 60 -515 302 -615 376
-289 213 -520 459 -735 782 -235 353 -403 746 -486 1135 l-18 85 0 -190 c0
-107 6 -243 14 -310 19 -154 18 -159 -6 -105 -90 199 -156 478 -187 795 l-8
80 -10 -100z"/>
<path d="M3770 1609 c116 -50 434 -118 655 -139 l120 -12 200 42 c110 22 202
44 205 47 3 3 -38 3 -91 0 -110 -7 -300 7 -404 30 -50 11 -121 14 -251 13
-157 -1 -330 9 -429 25 -29 5 -29 5 -5 -6z"/>
</g>
</svg>
