<?xml version="1.0" standalone="no"?>
<!DOCTYPE svg PUBLIC "-//W3C//DTD SVG 20010904//EN"
 "http://www.w3.org/TR/2001/REC-SVG-20010904/DTD/svg10.dtd">
<svg version="1.0" xmlns="http://www.w3.org/2000/svg"
 width="1000.000000pt" height="1000.000000pt" viewBox="0 0 1000.000000 1000.000000"
 preserveAspectRatio="xMidYMid meet">

<g transform="translate(0.000000,1000.000000) scale(0.100000,-0.100000)"
fill="#000000" stroke="none">
<path d="M3330 5660 l0 -2150 -292 -3 -293 -2 298 -3 297 -2 0 2150 0 2150
798 3 797 2 -802 3 -803 2 0 -2150z"/>
<path d="M5590 6105 l0 -1705 -172 -3 -173 -3 178 -2 177 -2 0 1705 0 1706
378 -4 c207 -2 388 -6 402 -10 14 -4 9 -1 -10 7 -28 12 -108 15 -407 15 l-373
1 0 -1705z"/>
<path d="M6415 7770 c3 -5 12 -10 19 -10 54 0 460 -208 506 -260 3 -3 32 -25
65 -49 76 -57 258 -240 310 -314 22 -31 44 -57 48 -57 15 0 -86 124 -177 219
-185 190 -411 341 -663 440 -111 44 -117 46 -108 31z"/>
<path d="M7370 7066 c0 -5 17 -36 38 -70 50 -82 85 -156 127 -269 10 -26 20
-46 22 -43 8 7 -68 190 -112 271 -46 84 -74 126 -75 111z"/>
<path d="M7567 6625 c3 -22 9 -49 14 -60 l8 -20 0 20 c0 11 -7 38 -14 60 l-14
40 6 -40z"/>
<path d="M7592 6510 c0 -19 2 -27 5 -17 2 9 2 25 0 35 -3 9 -5 1 -5 -18z"/>
<path d="M7601 6309 c0 -91 -3 -188 -6 -215 -4 -48 -4 -48 5 -9 15 66 22 256
12 325 -8 57 -10 44 -11 -101z"/>
<path d="M7570 5985 c-6 -31 -10 -59 -7 -61 2 -2 9 21 16 52 7 30 11 58 8 61
-3 2 -11 -21 -17 -52z"/>
<path d="M7545 5894 c-4 -10 -17 -48 -31 -83 -13 -36 -22 -66 -20 -69 2 -2 18
33 36 78 17 45 29 85 26 88 -3 2 -8 -4 -11 -14z"/>
<path d="M7456 5679 c-14 -29 -23 -55 -21 -57 2 -2 16 19 30 48 14 29 24 54
21 57 -2 3 -16 -19 -30 -48z"/>
<path d="M7399 5573 c-12 -21 -42 -64 -66 -96 -25 -33 -42 -61 -40 -64 3 -2
25 24 50 59 51 72 91 138 84 138 -3 0 -16 -17 -28 -37z"/>
<path d="M7170 5291 c-113 -116 -272 -240 -382 -299 -37 -20 -68 -41 -68 -45
0 -18 207 116 315 203 94 77 273 259 243 249 -2 -1 -50 -49 -108 -108z"/>
<path d="M6641 4914 c-29 -14 -51 -27 -48 -30 3 -3 31 8 63 25 71 36 61 39
-15 5z"/>
<path d="M2038 4923 l692 -3 0 -688 c0 -475 4 -692 11 -702 9 -12 10 -12 5 3
-3 10 -6 329 -6 708 l0 689 -697 -2 -698 -3 693 -2z"/>
<path d="M6500 4854 c-70 -28 -91 -41 -48 -30 33 8 138 54 123 54 -5 1 -39
-11 -75 -24z"/>
<path d="M6388 4809 c-25 -14 -23 -23 19 -93 21 -33 46 -78 56 -98 11 -21 23
-38 29 -38 5 0 6 6 2 13 -4 6 -32 51 -61 99 -29 47 -53 90 -53 95 0 6 10 15
23 21 12 6 18 11 12 11 -5 0 -18 -4 -27 -10z"/>
<path d="M6500 4566 c0 -13 64 -116 72 -116 4 0 -6 24 -23 53 -32 55 -49 76
-49 63z"/>
<path d="M6580 4436 c0 -5 18 -38 40 -73 22 -35 49 -78 59 -96 10 -17 48 -79
83 -137 100 -162 398 -650 428 -700 15 -25 57 -94 93 -153 37 -60 67 -113 67
-118 0 -5 5 -9 11 -9 7 0 6 8 -3 23 -8 12 -182 299 -388 637 -370 610 -390
642 -390 626z"/>
<path d="M5280 4340 c13 -25 87 -164 165 -310 78 -146 168 -314 200 -375 58
-111 75 -138 75 -119 0 5 -4 14 -9 19 -4 6 -41 73 -81 150 -40 77 -76 145 -80
150 -4 6 -35 64 -70 130 -35 66 -75 143 -90 170 -15 28 -46 86 -70 130 -46 86
-77 129 -40 55z"/>
<path d="M5727 3505 c46 -94 316 -595 320 -592 4 4 -71 148 -275 527 -32 61
-67 111 -45 65z"/>
<path d="M7389 3105 c17 -32 108 -186 150 -255 5 -8 12 -13 14 -10 3 3 -34 69
-81 147 -87 141 -124 194 -83 118z"/>
<path d="M1351 2970 c21 -131 92 -332 157 -444 96 -165 220 -285 355 -341 61
-25 42 -10 -36 29 -195 98 -365 348 -442 652 -14 54 -25 111 -25 126 0 16 -4
28 -9 28 -4 0 -4 -23 0 -50z"/>
<path d="M6053 2895 c2 -5 48 -92 101 -192 l98 -183 749 0 c412 0 749 3 749 8
0 4 -9 21 -20 37 -11 17 -53 83 -92 148 -39 65 -73 116 -75 113 -3 -3 34 -68
81 -144 47 -77 86 -143 86 -146 0 -3 -330 -6 -734 -6 -575 0 -736 3 -744 13
-5 6 -46 82 -91 167 -44 85 -87 164 -96 175 -9 11 -15 16 -12 10z"/>
<path d="M1914 2173 c3 -4 23 -14 44 -22 33 -14 204 -16 1502 -16 l1465 0
-1455 5 c-1348 5 -1459 6 -1505 22 -56 20 -61 21 -51 11z"/>
</g>
</svg>
