<!DOCTYPE svg PUBLIC "-//W3C//DTD SVG 1.1//EN" "http://www.w3.org/Graphics/SVG/1.1/DTD/svg11.dtd">
<!-- Uploaded to: SVG Repo, www.svgrepo.com, Transformed by: SVG Repo Mixer Tools -->
<svg fill="#ffeb0c" height="210px" width="210px" version="1.1" id="Layer_1" xmlns="http://www.w3.org/2000/svg" xmlns:xlink="http://www.w3.org/1999/xlink" viewBox="-51.2 -51.2 614.40 614.40" xml:space="preserve" stroke="#ffeb0c" transform="rotate(0)" stroke-width="0.00512">
<g id="SVGRepo_bgCarrier" stroke-width="0"/>
<g id="SVGRepo_tracerCarrier" stroke-linecap="round" stroke-linejoin="round"/>
<g id="SVGRepo_iconCarrier"> <g> <g> <path d="M55.652,367.304c-27.662,0-50.087,22.424-50.087,50.087s22.424,50.087,50.087,50.087 c27.662,0,50.087-22.424,50.087-50.087S83.315,367.304,55.652,367.304z M55.652,434.087c-9.206,0-16.696-7.49-16.696-16.696 s7.49-16.696,16.696-16.696c9.206,0,16.696,7.49,16.696,16.696S64.858,434.087,55.652,434.087z"/> </g> </g> <g> <g> <path d="M489.739,411.826c-9.206,0-16.696,7.49-16.696,16.696s7.49,16.696,16.696,16.696s16.696-7.49,16.696-16.696 S498.945,411.826,489.739,411.826z"/> </g> </g> <g> <g> <path d="M425.739,100.174c-8.999,0-17.426,2.208-25.043,5.85V91.826c0-32.245-26.19-58.435-58.435-58.435 c-10.213,0-19.675,2.859-28.034,7.475C306.725,17.251,284.865,0,258.783,0c-26.082,0-47.941,17.251-55.444,40.867 c-8.358-4.616-17.82-7.475-28.034-7.475c-32.244,0-58.435,26.19-58.435,58.435v86.261v5.565v15.487 c-22.524-13.903-52.423-11.233-71.944,8.288c-22.8,22.8-22.801,59.838,0,82.639l0.098,0.049 c119.891,119.995,131.38,136.297,172.02,157.151v31.343h-83.006c-8.99,0-16.726,6.909-17.148,15.889 c-0.452,9.588,7.187,17.503,16.676,17.503h83.478H384h83.478c9.489,0,17.128-7.915,16.677-17.503 c-0.423-8.98-8.159-15.889-17.148-15.889H384v-31.352c-0.001,0.001-0.002,0.001-0.003,0.001 c59.413-30.421,100.177-92.121,100.177-163.432V183.652v-5.565v-19.478C484.174,126.364,457.984,100.174,425.739,100.174z M350.609,478.609H250.435v-18.159c15.934,4.513,32.707,7.029,50.087,7.029c17.387,0,34.144-2.58,50.087-7.099V478.609z M450.783,178.087v5.565v98.91c0,83.105-67.996,151.933-151.1,151.523c-36.849-0.181-72.043-12.331-98.11-34.613l-81.475-81.475 l-51.534-51.534l-0.018,0.018l-0.009-0.024c-9.992-9.992-9.759-26.392,0.696-36.087c9.945-9.222,25.567-8.486,35.157,1.104 l0.235,0.235c15.138,15.14,18.436,24.898,33.513,25.088c7.628,0.097,15.254,0.727,22.673,2.503 c52.099,12.481,89.355,59.05,89.624,112.979c0.047,9.331,7.56,17.391,16.89,17.286c9.149-0.104,16.502-7.521,16.502-16.695 c0-76.132-57.099-139.353-130.671-148.925c-1.002-0.223-1.892-0.334-2.894-0.334v-39.958v-5.565V92.44 c0-13.562,10.526-25.128,24.08-25.64c14.247-0.538,26.007,10.896,26.007,25.026v91.354c0,8.99,6.909,16.726,15.889,17.148 c9.588,0.452,17.503-7.187,17.503-16.676V59.049c0-13.562,10.526-25.128,24.08-25.64c14.247-0.538,26.007,10.896,26.007,25.026 V183.18c0,8.99,6.909,16.726,15.889,17.148c9.588,0.452,17.503-7.187,17.503-16.676V92.44c0-13.562,10.526-25.128,24.08-25.64 c14.247-0.538,26.007,10.896,26.007,25.026v91.354c0,8.99,6.909,16.726,15.889,17.148c9.588,0.452,17.503-7.187,17.503-16.676 v-24.429c0-13.562,10.526-25.128,24.08-25.64c14.247-0.538,26.007,10.896,26.007,25.026V178.087z"/> </g> </g> </g>
</svg>